STARTFONT 2.1
FONT -ChrisPhan-6by5-Medium-R-Normal--6-60-75-75-P-40-ISO10646-1
SIZE 5 75 75
FONTBOUNDINGBOX 6 5 0 -1
STARTPROPERTIES 2
FONT_ASCENT 5
FONT_DESCENT 0
ENDPROPERTIES
CHARS 24
STARTCHAR U+0031 DIGIT ONE
ENCODING 49
SWIDTH 1000 0
DWIDTH 4 0
BBX 4 5 0 0
BITMAP
40
C0
40
40
E0
ENDCHAR
STARTCHAR U+0032 DIGIT TWO
ENCODING 50
SWIDTH 1000 0
DWIDTH 4 0
BBX 4 5 0 0
BITMAP
C0
20
20
40
E0
ENDCHAR
STARTCHAR U+0033 DIGIT THREE
ENCODING 51
SWIDTH 1000 0
DWIDTH 4 0
BBX 4 5 0 0
BITMAP
C0
20
C0
20
C0
ENDCHAR
STARTCHAR U+0034 DIGIT FOUR
ENCODING 52
SWIDTH 1000 0
DWIDTH 4 0
BBX 4 5 0 0
BITMAP
A0
A0
E0
20
20
ENDCHAR
STARTCHAR U+0035 DIGIT FIVE
ENCODING 53
SWIDTH 1000 0
DWIDTH 4 0
BBX 4 5 0 0
BITMAP
E0
80
C0
20
C0
ENDCHAR
STARTCHAR U+0036 DIGIT SIX
ENCODING 54
SWIDTH 1000 0
DWIDTH 4 0
BBX 4 5 0 0
BITMAP
60
80
C0
A0
40
ENDCHAR
STARTCHAR U+0037 DIGIT SEVEN
ENCODING 55
SWIDTH 1000 0
DWIDTH 4 0
BBX 4 5 0 0
BITMAP
E0
40
80
80
80
ENDCHAR
STARTCHAR U+0038 DIGIT EIGHT
ENCODING 56
SWIDTH 1000 0
DWIDTH 4 0
BBX 4 5 0 0
BITMAP
40
A0
40
A0
40
ENDCHAR
STARTCHAR U+0039 DIGIT NINE
ENCODING 57
SWIDTH 1000 0
DWIDTH 4 0
BBX 4 5 0 0
BITMAP
40
A0
60
20
C0
ENDCHAR
STARTCHAR U+0030 DIGIT ZERO
ENCODING 48
SWIDTH 1000 0
DWIDTH 4 0
BBX 4 5 0 0
BITMAP
40
A0
A0
A0
40
ENDCHAR
STARTCHAR U+003B SEMICOLON
ENCODING 59
SWIDTH 1000 0
DWIDTH 4 0
BBX 4 5 0 0
BITMAP
00
40
00
40
80
ENDCHAR
STARTCHAR U+002D HYPHEN-MINUS
ENCODING 45
SWIDTH 1000 0
DWIDTH 4 0
BBX 4 5 0 0
BITMAP
00
00
E0
00
00
ENDCHAR
STARTCHAR U+003A COLON
ENCODING 58
SWIDTH 1000 0
DWIDTH 4 0
BBX 4 5 0 0
BITMAP
40
40
00
40
40
ENDCHAR
STARTCHAR U+0046 LATIN CAPITAL LETTER F
ENCODING 70
SWIDTH 1000 0
DWIDTH 6 0
BBX 6 5 0 0
BITMAP
F8
80
F8
80
80
ENDCHAR
STARTCHAR U+004D LATIN CAPITAL LETTER M
ENCODING 77
SWIDTH 1000 0
DWIDTH 6 0
BBX 6 5 0 0
BITMAP
88
D8
A8
88
88
ENDCHAR
STARTCHAR U+0053 LATIN CAPITAL LETTER S
ENCODING 83
SWIDTH 1000 0
DWIDTH 6 0
BBX 6 5 0 0
BITMAP
78
80
70
08
F0
ENDCHAR
STARTCHAR U+0054 LATIN CAPITAL LETTER T
ENCODING 84
SWIDTH 1000 0
DWIDTH 6 0
BBX 6 5 0 0
BITMAP
F8
20
20
20
20
ENDCHAR
STARTCHAR U+0057 LATIN CAPITAL LETTER W
ENCODING 87
SWIDTH 1000 0
DWIDTH 6 0
BBX 6 5 0 0
BITMAP
88
88
A8
A8
70
ENDCHAR
STARTCHAR U+0020 SPACE
ENCODING 32
SWIDTH 1000 0
DWIDTH 4 0
BBX 4 5 0 0
BITMAP
00
00
00
00
00
ENDCHAR
STARTCHAR U+0061 LATIN SMALL LETTER A
ENCODING 97
SWIDTH 1000 0
DWIDTH 6 0
BBX 6 5 0 0
BITMAP
00
60
90
90
78
ENDCHAR
STARTCHAR U+0068 LATIN SMALL LETTER H
ENCODING 104
SWIDTH 1000 0
DWIDTH 6 0
BBX 6 5 0 0
BITMAP
80
80
F0
88
88
ENDCHAR
STARTCHAR U+0075 LATIN SMALL LETTER U
ENCODING 117
SWIDTH 1000 0
DWIDTH 6 0
BBX 6 5 0 0
BITMAP
00
00
90
90
78
ENDCHAR
STARTCHAR U+218A TURNED DIGIT TWO
ENCODING 8586
SWIDTH 1000 0
DWIDTH 4 0
BBX 4 5 0 0
BITMAP
E0
40
80
80
60
ENDCHAR
STARTCHAR U+218B TURNED DIGIT THREE
ENCODING 8587
SWIDTH 1000 0
DWIDTH 4 0
BBX 4 5 0 0
BITMAP
60
80
60
80
60
ENDCHAR
ENDFONT
